# xmcd CD database file
#
# Track frame offsets:
#	150
#	14905
#	24087
#	38840
#	57052
#	70255
#	85727
#	100252
#	115367
#	125842
#	144430
#	157422
#	172282
#	188302
#	197827
#	223597
#	230495
#	246242
#	251412
#	253285
#	260150
#	268780
#	279415
#	286345
#	299715
#	306452
#	318445
#	326975
#
# Disc length: 4472 seconds
#
# Revision: 3
# Processed by: cddbd v1.5.2PL0 Copyright (c) Steve Scherf et al.
# Submitted via: CDex 1.70beta2
#
DISCID=c411761c
DTITLE=Frank Sinatra - Frank Sinatra in Hollywood (1940-1964) -Disc 3
DYEAR=2002
DGENRE=Vocal
TTITLE0=Promotional Interview Discussing "The Kissing Bandit" and "Take Me Out to the Ball Game" (Feat. Dick Simmons)
TTITLE1=Take Me Out to the Ball Game (Feat. Gene Kelly)
TTITLE2=Yes, Indeedy (Feat. Gene Kelly, Jules Munshin and Chorus)
TTITLE3=O'Brien to Ryan to Goldberg (Feat. Gene Kelly and Jules Munshin)
TTITLE4=The Right Girl For Me
TTITLE5=Boys and Girls Like You and Me (Outtake)
TTITLE6=It's Fate, Baby It's Fate (Feat. Betty Garrett)
TTITLE7=Strictly U.S.A. (Feat. Gene Kelly, Jules Munshin, Betty Garett, Esther Williams, Dick Lane, Tommy Dugan and The M-G-M Studio Chorus)
TTITLE8=Finale: Strictly U.S.A. (Feat. Gene Kelly, Jules Munshin, Betty Garett, Esther Williams, Judy Matson and The M-G-M Studio Chorus)
TTITLE9=New York, New York (Full Length Version) (Feat. Gene Kelly, Jules Munshin, Ralph Brewster, Charles Pavalato, Marvin Bailey and Bill Lee - Harry Stanton
TTITLE10=Come Up to My Place (Feat. Betty Garrett)
TTITLE11=You're Awful (Feat. Betty Garrett)
TTITLE12=Count on Me (Feat. Jules Munshin, Ann Miller, Betty Garrett, Alice Pearce and The M-G-M Studio Chorus)
TTITLE13=Pearl of the Persian Sea (Feat. Gene Kelly and Jules Munshin))
TTITLE14=On the Town (Feat. Gene Kelly, Jules Munshin, Ann Miller, Vera-Allen and Betty Garrett)
TTITLE15=It's Only Money (Feat. Groucho Marx))
TTITLE16=Kisses and Tears (Feat. Jane Russell)
TTITLE17=Finale: It's Only Money (Feat. Groucho Marx and Jane Russell)
TTITLE18=Promotional Spot for "Meet Danny Wilson"
TTITLE19=All of Me (Feat. Ken Lane)
TTITLE20=How Deep is the Ocean (Feat. Ken Lane)
TTITLE21=You're a Sweetheart (Feat. Ken Lane)
TTITLE22=(I Got a Woman Crazy for Me) She's Funny That Way (Edited Version) (Feat. Ken Lane and Manny Klein)
TTITLE23=A Good Man is Hard to Find
TTITLE24=Lonesome Man Blues (Edited Version) (Feat. Danny Welton)
TTITLE25=That Old Black Magic (Feat. Ken Lane)
TTITLE26=I've Got a Crush on You (Feat. The Ebonaires and Ken Lane)
TTITLE27=When You're Smiling (The Whole World Smiles With You) (Feat. Ken Lane)
EXTD=YEAR: 2002
EXTT0=
EXTT1=
EXTT2=
EXTT3=
EXTT4=
EXTT5=
EXTT6=
EXTT7=
EXTT8=
EXTT9=
EXTT10=
EXTT11=
EXTT12=
EXTT13=
EXTT14=
EXTT15=
EXTT16=
EXTT17=
EXTT18=
EXTT19=
EXTT20=
EXTT21=
EXTT22=
EXTT23=
EXTT24=
EXTT25=
EXTT26=
EXTT27=
PLAYORDER=
